# xmcd CD database file
#
# Track frame offsets:
#	150
#	24229
#	45239
#	69909
#	89199
#	110441
#	133598
#	155770
#	179353
#	199182
#
# Disc length: 2980 seconds
#
# Revision: 0
# Processed by: cddbd v1.5.2PL0 Copyright (c) Steve Scherf et al.
# Submitted via: CDex 1.70beta2
#
DISCID=830ba20a
DTITLE=Ulita Knaus - Love In This Time
DYEAR=2017
DGENRE=Jazz
TTITLE0=Zero Days
TTITLE1=Invader
TTITLE2=One Note
TTITLE3=Forever Seven
TTITLE4=Mammoth Tree
TTITLE5=White Signs on Black Flags
TTITLE6=Missing Link
TTITLE7=The Nothingness of Today
TTITLE8=Quantum Physics of Love
TTITLE9=Visions
EXTD=YEAR: 2017
EXTT0=
EXTT1=
EXTT2=
EXTT3=
EXTT4=
EXTT5=
EXTT6=
EXTT7=
EXTT8=
EXTT9=
PLAYORDER=
